<mxfile host="app.diagrams.net" modified="2022-07-17T08:39:05.171Z" agent="5.0 (Macintosh; Intel Mac OS X 10_15_7) AppleWebKit/537.36 (KHTML, like Gecko) Chrome/103.0.5060.114 Safari/537.36" etag="T3vEk894ZVhkPFs23UyX" version="20.1.1" type="github">
  <diagram id="wp_xYZn4VHThL3dPTbGy" name="Page-1">
    <mxGraphModel dx="2521" dy="939" grid="1" gridSize="10" guides="1" tooltips="1" connect="1" arrows="1" fold="1" page="1" pageScale="1" pageWidth="827" pageHeight="1169" math="0" shadow="0">
      <root>
        <mxCell id="0" />
        <mxCell id="1" parent="0" />
        <mxCell id="sDerq0rX48A-iTbsA8gS-17" value="" style="edgeStyle=orthogonalEdgeStyle;rounded=0;orthogonalLoop=1;jettySize=auto;html=1;fontFamily=Kanit;fontSource=https%3A%2F%2Ffonts.googleapis.com%2Fcss%3Ffamily%3DKanit;fontSize=18;" edge="1" parent="1" source="GzxjLerJVdwIG-m4BnVG-1" target="sDerq0rX48A-iTbsA8gS-16">
          <mxGeometry relative="1" as="geometry" />
        </mxCell>
        <mxCell id="GzxjLerJVdwIG-m4BnVG-1" value="&lt;font style=&quot;font-size: 24px;&quot; data-font-src=&quot;https://fonts.googleapis.com/css?family=Kanit&quot; face=&quot;Kanit&quot;&gt;Start&lt;/font&gt;" style="strokeWidth=2;html=1;shape=mxgraph.flowchart.terminator;whiteSpace=wrap;" parent="1" vertex="1">
          <mxGeometry x="20" y="20" width="120" height="60" as="geometry" />
        </mxCell>
        <mxCell id="sDerq0rX48A-iTbsA8gS-19" value="" style="edgeStyle=orthogonalEdgeStyle;rounded=0;orthogonalLoop=1;jettySize=auto;html=1;fontFamily=Kanit;fontSource=https%3A%2F%2Ffonts.googleapis.com%2Fcss%3Ffamily%3DKanit;fontSize=18;" edge="1" parent="1" source="sDerq0rX48A-iTbsA8gS-16">
          <mxGeometry relative="1" as="geometry">
            <mxPoint x="80" y="300" as="targetPoint" />
          </mxGeometry>
        </mxCell>
        <mxCell id="sDerq0rX48A-iTbsA8gS-16" value="int n, i, range[5], avg = 0" style="rounded=1;whiteSpace=wrap;html=1;absoluteArcSize=1;arcSize=14;strokeWidth=2;fontFamily=Kanit;fontSource=https%3A%2F%2Ffonts.googleapis.com%2Fcss%3Ffamily%3DKanit;fontSize=18;" vertex="1" parent="1">
          <mxGeometry x="-17.5" y="130" width="195" height="100" as="geometry" />
        </mxCell>
        <mxCell id="sDerq0rX48A-iTbsA8gS-22" value="" style="edgeStyle=orthogonalEdgeStyle;rounded=0;orthogonalLoop=1;jettySize=auto;html=1;fontFamily=Kanit;fontSource=https%3A%2F%2Ffonts.googleapis.com%2Fcss%3Ffamily%3DKanit;fontSize=18;" edge="1" parent="1" source="sDerq0rX48A-iTbsA8gS-20" target="sDerq0rX48A-iTbsA8gS-21">
          <mxGeometry relative="1" as="geometry" />
        </mxCell>
        <mxCell id="sDerq0rX48A-iTbsA8gS-20" value="Reading n" style="html=1;strokeWidth=2;shape=manualInput;whiteSpace=wrap;rounded=1;size=26;arcSize=11;fontFamily=Kanit;fontSource=https%3A%2F%2Ffonts.googleapis.com%2Fcss%3Ffamily%3DKanit;fontSize=18;" vertex="1" parent="1">
          <mxGeometry x="-10" y="300" width="180" height="100" as="geometry" />
        </mxCell>
        <mxCell id="sDerq0rX48A-iTbsA8gS-24" value="" style="edgeStyle=orthogonalEdgeStyle;rounded=0;orthogonalLoop=1;jettySize=auto;html=1;fontFamily=Kanit;fontSource=https%3A%2F%2Ffonts.googleapis.com%2Fcss%3Ffamily%3DKanit;fontSize=18;" edge="1" parent="1" source="sDerq0rX48A-iTbsA8gS-21" target="sDerq0rX48A-iTbsA8gS-23">
          <mxGeometry relative="1" as="geometry" />
        </mxCell>
        <mxCell id="sDerq0rX48A-iTbsA8gS-21" value="float height[n]" style="rounded=1;whiteSpace=wrap;html=1;absoluteArcSize=1;arcSize=14;strokeWidth=2;fontFamily=Kanit;fontSource=https%3A%2F%2Ffonts.googleapis.com%2Fcss%3Ffamily%3DKanit;fontSize=18;" vertex="1" parent="1">
          <mxGeometry x="-5" y="470" width="170" height="100" as="geometry" />
        </mxCell>
        <mxCell id="sDerq0rX48A-iTbsA8gS-28" value="" style="edgeStyle=orthogonalEdgeStyle;rounded=0;orthogonalLoop=1;jettySize=auto;html=1;fontFamily=Kanit;fontSource=https%3A%2F%2Ffonts.googleapis.com%2Fcss%3Ffamily%3DKanit;fontSize=18;" edge="1" parent="1" source="sDerq0rX48A-iTbsA8gS-23" target="sDerq0rX48A-iTbsA8gS-27">
          <mxGeometry relative="1" as="geometry" />
        </mxCell>
        <mxCell id="sDerq0rX48A-iTbsA8gS-23" value="i = 0" style="rounded=1;whiteSpace=wrap;html=1;absoluteArcSize=1;arcSize=14;strokeWidth=2;fontFamily=Kanit;fontSource=https%3A%2F%2Ffonts.googleapis.com%2Fcss%3Ffamily%3DKanit;fontSize=18;" vertex="1" parent="1">
          <mxGeometry x="17.5" y="636" width="125" height="60" as="geometry" />
        </mxCell>
        <mxCell id="sDerq0rX48A-iTbsA8gS-31" value="" style="edgeStyle=orthogonalEdgeStyle;rounded=0;orthogonalLoop=1;jettySize=auto;html=1;fontFamily=Kanit;fontSource=https%3A%2F%2Ffonts.googleapis.com%2Fcss%3Ffamily%3DKanit;fontSize=18;" edge="1" parent="1" source="sDerq0rX48A-iTbsA8gS-27" target="sDerq0rX48A-iTbsA8gS-30">
          <mxGeometry relative="1" as="geometry" />
        </mxCell>
        <mxCell id="sDerq0rX48A-iTbsA8gS-27" value="i &amp;lt; n" style="strokeWidth=2;html=1;shape=mxgraph.flowchart.decision;whiteSpace=wrap;fontFamily=Kanit;fontSource=https%3A%2F%2Ffonts.googleapis.com%2Fcss%3Ffamily%3DKanit;fontSize=18;" vertex="1" parent="1">
          <mxGeometry x="-20" y="756" width="200" height="110" as="geometry" />
        </mxCell>
        <mxCell id="sDerq0rX48A-iTbsA8gS-34" value="" style="edgeStyle=orthogonalEdgeStyle;rounded=0;orthogonalLoop=1;jettySize=auto;html=1;fontFamily=Kanit;fontSource=https%3A%2F%2Ffonts.googleapis.com%2Fcss%3Ffamily%3DKanit;fontSize=18;" edge="1" parent="1" source="sDerq0rX48A-iTbsA8gS-30">
          <mxGeometry relative="1" as="geometry">
            <mxPoint x="80" y="1100" as="targetPoint" />
          </mxGeometry>
        </mxCell>
        <mxCell id="sDerq0rX48A-iTbsA8gS-30" value="Reading height[i]" style="html=1;strokeWidth=2;shape=manualInput;whiteSpace=wrap;rounded=1;size=26;arcSize=11;fontFamily=Kanit;fontSource=https%3A%2F%2Ffonts.googleapis.com%2Fcss%3Ffamily%3DKanit;fontSize=18;" vertex="1" parent="1">
          <mxGeometry x="-20" y="916" width="200" height="100" as="geometry" />
        </mxCell>
        <mxCell id="sDerq0rX48A-iTbsA8gS-44" value="" style="edgeStyle=orthogonalEdgeStyle;rounded=0;orthogonalLoop=1;jettySize=auto;html=1;fontFamily=Kanit;fontSource=https%3A%2F%2Ffonts.googleapis.com%2Fcss%3Ffamily%3DKanit;fontSize=18;" edge="1" parent="1" source="sDerq0rX48A-iTbsA8gS-42" target="sDerq0rX48A-iTbsA8gS-43">
          <mxGeometry relative="1" as="geometry" />
        </mxCell>
        <mxCell id="sDerq0rX48A-iTbsA8gS-56" value="" style="edgeStyle=orthogonalEdgeStyle;rounded=0;orthogonalLoop=1;jettySize=auto;html=1;fontFamily=Kanit;fontSource=https%3A%2F%2Ffonts.googleapis.com%2Fcss%3Ffamily%3DKanit;fontSize=18;" edge="1" parent="1" source="sDerq0rX48A-iTbsA8gS-42" target="sDerq0rX48A-iTbsA8gS-49">
          <mxGeometry relative="1" as="geometry" />
        </mxCell>
        <mxCell id="sDerq0rX48A-iTbsA8gS-42" value="i &amp;gt;= 0 &amp;amp;&amp;amp; i &amp;lt;= 160" style="strokeWidth=2;html=1;shape=mxgraph.flowchart.decision;whiteSpace=wrap;fontFamily=Kanit;fontSource=https%3A%2F%2Ffonts.googleapis.com%2Fcss%3Ffamily%3DKanit;fontSize=18;" vertex="1" parent="1">
          <mxGeometry x="-20" y="1100" width="200" height="110" as="geometry" />
        </mxCell>
        <mxCell id="sDerq0rX48A-iTbsA8gS-46" value="" style="edgeStyle=orthogonalEdgeStyle;rounded=0;orthogonalLoop=1;jettySize=auto;html=1;fontFamily=Kanit;fontSource=https%3A%2F%2Ffonts.googleapis.com%2Fcss%3Ffamily%3DKanit;fontSize=18;" edge="1" parent="1" source="sDerq0rX48A-iTbsA8gS-43" target="sDerq0rX48A-iTbsA8gS-45">
          <mxGeometry relative="1" as="geometry" />
        </mxCell>
        <mxCell id="sDerq0rX48A-iTbsA8gS-55" value="" style="edgeStyle=orthogonalEdgeStyle;rounded=0;orthogonalLoop=1;jettySize=auto;html=1;fontFamily=Kanit;fontSource=https%3A%2F%2Ffonts.googleapis.com%2Fcss%3Ffamily%3DKanit;fontSize=18;" edge="1" parent="1" source="sDerq0rX48A-iTbsA8gS-43">
          <mxGeometry relative="1" as="geometry">
            <mxPoint x="260" y="1325" as="targetPoint" />
          </mxGeometry>
        </mxCell>
        <mxCell id="sDerq0rX48A-iTbsA8gS-43" value="i &amp;gt; 160 &amp;amp;&amp;amp; i &amp;lt;= 170" style="strokeWidth=2;html=1;shape=mxgraph.flowchart.decision;whiteSpace=wrap;fontFamily=Kanit;fontSource=https%3A%2F%2Ffonts.googleapis.com%2Fcss%3Ffamily%3DKanit;fontSize=18;" vertex="1" parent="1">
          <mxGeometry x="-20" y="1270" width="200" height="110" as="geometry" />
        </mxCell>
        <mxCell id="sDerq0rX48A-iTbsA8gS-48" value="" style="edgeStyle=orthogonalEdgeStyle;rounded=0;orthogonalLoop=1;jettySize=auto;html=1;fontFamily=Kanit;fontSource=https%3A%2F%2Ffonts.googleapis.com%2Fcss%3Ffamily%3DKanit;fontSize=18;" edge="1" parent="1" source="sDerq0rX48A-iTbsA8gS-45" target="sDerq0rX48A-iTbsA8gS-47">
          <mxGeometry relative="1" as="geometry" />
        </mxCell>
        <mxCell id="sDerq0rX48A-iTbsA8gS-54" value="" style="edgeStyle=orthogonalEdgeStyle;rounded=0;orthogonalLoop=1;jettySize=auto;html=1;fontFamily=Kanit;fontSource=https%3A%2F%2Ffonts.googleapis.com%2Fcss%3Ffamily%3DKanit;fontSize=18;" edge="1" parent="1" source="sDerq0rX48A-iTbsA8gS-45">
          <mxGeometry relative="1" as="geometry">
            <mxPoint x="260" y="1495" as="targetPoint" />
          </mxGeometry>
        </mxCell>
        <mxCell id="sDerq0rX48A-iTbsA8gS-45" value="i &amp;gt; 170 &amp;amp;&amp;amp; i &amp;lt;= 180" style="strokeWidth=2;html=1;shape=mxgraph.flowchart.decision;whiteSpace=wrap;fontFamily=Kanit;fontSource=https%3A%2F%2Ffonts.googleapis.com%2Fcss%3Ffamily%3DKanit;fontSize=18;" vertex="1" parent="1">
          <mxGeometry x="-20" y="1440" width="200" height="110" as="geometry" />
        </mxCell>
        <mxCell id="sDerq0rX48A-iTbsA8gS-53" value="" style="edgeStyle=orthogonalEdgeStyle;rounded=0;orthogonalLoop=1;jettySize=auto;html=1;fontFamily=Kanit;fontSource=https%3A%2F%2Ffonts.googleapis.com%2Fcss%3Ffamily%3DKanit;fontSize=18;" edge="1" parent="1" source="sDerq0rX48A-iTbsA8gS-47">
          <mxGeometry relative="1" as="geometry">
            <mxPoint x="260" y="1665" as="targetPoint" />
          </mxGeometry>
        </mxCell>
        <mxCell id="sDerq0rX48A-iTbsA8gS-75" value="" style="edgeStyle=orthogonalEdgeStyle;rounded=0;orthogonalLoop=1;jettySize=auto;html=1;fontFamily=Kanit;fontSource=https%3A%2F%2Ffonts.googleapis.com%2Fcss%3Ffamily%3DKanit;fontSize=18;" edge="1" parent="1" source="sDerq0rX48A-iTbsA8gS-47" target="sDerq0rX48A-iTbsA8gS-74">
          <mxGeometry relative="1" as="geometry" />
        </mxCell>
        <mxCell id="sDerq0rX48A-iTbsA8gS-47" value="i &amp;gt; 180 &amp;amp;&amp;amp; i &amp;lt;= 200" style="strokeWidth=2;html=1;shape=mxgraph.flowchart.decision;whiteSpace=wrap;fontFamily=Kanit;fontSource=https%3A%2F%2Ffonts.googleapis.com%2Fcss%3Ffamily%3DKanit;fontSize=18;" vertex="1" parent="1">
          <mxGeometry x="-20" y="1610" width="200" height="110" as="geometry" />
        </mxCell>
        <mxCell id="sDerq0rX48A-iTbsA8gS-68" style="edgeStyle=orthogonalEdgeStyle;rounded=0;orthogonalLoop=1;jettySize=auto;html=1;entryX=0;entryY=0.5;entryDx=0;entryDy=0;entryPerimeter=0;fontFamily=Kanit;fontSource=https%3A%2F%2Ffonts.googleapis.com%2Fcss%3Ffamily%3DKanit;fontSize=18;" edge="1" parent="1" source="sDerq0rX48A-iTbsA8gS-49" target="sDerq0rX48A-iTbsA8gS-60">
          <mxGeometry relative="1" as="geometry" />
        </mxCell>
        <mxCell id="sDerq0rX48A-iTbsA8gS-49" value="range[0] = range[0] +1" style="rounded=1;whiteSpace=wrap;html=1;absoluteArcSize=1;arcSize=14;strokeWidth=2;fontFamily=Kanit;fontSource=https%3A%2F%2Ffonts.googleapis.com%2Fcss%3Ffamily%3DKanit;fontSize=18;" vertex="1" parent="1">
          <mxGeometry x="260" y="1105" width="200" height="100" as="geometry" />
        </mxCell>
        <mxCell id="sDerq0rX48A-iTbsA8gS-70" style="edgeStyle=orthogonalEdgeStyle;rounded=0;orthogonalLoop=1;jettySize=auto;html=1;entryX=0;entryY=0.5;entryDx=0;entryDy=0;entryPerimeter=0;fontFamily=Kanit;fontSource=https%3A%2F%2Ffonts.googleapis.com%2Fcss%3Ffamily%3DKanit;fontSize=18;" edge="1" parent="1" source="sDerq0rX48A-iTbsA8gS-57" target="sDerq0rX48A-iTbsA8gS-63">
          <mxGeometry relative="1" as="geometry" />
        </mxCell>
        <mxCell id="sDerq0rX48A-iTbsA8gS-57" value="range[2] = range[2] +1" style="rounded=1;whiteSpace=wrap;html=1;absoluteArcSize=1;arcSize=14;strokeWidth=2;fontFamily=Kanit;fontSource=https%3A%2F%2Ffonts.googleapis.com%2Fcss%3Ffamily%3DKanit;fontSize=18;" vertex="1" parent="1">
          <mxGeometry x="260" y="1445" width="200" height="100" as="geometry" />
        </mxCell>
        <mxCell id="sDerq0rX48A-iTbsA8gS-69" style="edgeStyle=orthogonalEdgeStyle;rounded=0;orthogonalLoop=1;jettySize=auto;html=1;entryX=0;entryY=0.5;entryDx=0;entryDy=0;entryPerimeter=0;fontFamily=Kanit;fontSource=https%3A%2F%2Ffonts.googleapis.com%2Fcss%3Ffamily%3DKanit;fontSize=18;" edge="1" parent="1" source="sDerq0rX48A-iTbsA8gS-58" target="sDerq0rX48A-iTbsA8gS-62">
          <mxGeometry relative="1" as="geometry" />
        </mxCell>
        <mxCell id="sDerq0rX48A-iTbsA8gS-58" value="range[1] = range[1] +1" style="rounded=1;whiteSpace=wrap;html=1;absoluteArcSize=1;arcSize=14;strokeWidth=2;fontFamily=Kanit;fontSource=https%3A%2F%2Ffonts.googleapis.com%2Fcss%3Ffamily%3DKanit;fontSize=18;" vertex="1" parent="1">
          <mxGeometry x="260" y="1275" width="200" height="100" as="geometry" />
        </mxCell>
        <mxCell id="sDerq0rX48A-iTbsA8gS-71" style="edgeStyle=orthogonalEdgeStyle;rounded=0;orthogonalLoop=1;jettySize=auto;html=1;entryX=0;entryY=0.5;entryDx=0;entryDy=0;entryPerimeter=0;fontFamily=Kanit;fontSource=https%3A%2F%2Ffonts.googleapis.com%2Fcss%3Ffamily%3DKanit;fontSize=18;" edge="1" parent="1" source="sDerq0rX48A-iTbsA8gS-59" target="sDerq0rX48A-iTbsA8gS-64">
          <mxGeometry relative="1" as="geometry" />
        </mxCell>
        <mxCell id="sDerq0rX48A-iTbsA8gS-59" value="range[3] = range[3] +1" style="rounded=1;whiteSpace=wrap;html=1;absoluteArcSize=1;arcSize=14;strokeWidth=2;fontFamily=Kanit;fontSource=https%3A%2F%2Ffonts.googleapis.com%2Fcss%3Ffamily%3DKanit;fontSize=18;" vertex="1" parent="1">
          <mxGeometry x="260" y="1615" width="200" height="100" as="geometry" />
        </mxCell>
        <mxCell id="sDerq0rX48A-iTbsA8gS-73" value="" style="edgeStyle=orthogonalEdgeStyle;rounded=0;orthogonalLoop=1;jettySize=auto;html=1;fontFamily=Kanit;fontSource=https%3A%2F%2Ffonts.googleapis.com%2Fcss%3Ffamily%3DKanit;fontSize=18;" edge="1" parent="1" source="sDerq0rX48A-iTbsA8gS-60" target="sDerq0rX48A-iTbsA8gS-72">
          <mxGeometry relative="1" as="geometry" />
        </mxCell>
        <mxCell id="sDerq0rX48A-iTbsA8gS-60" value="" style="verticalLabelPosition=bottom;verticalAlign=top;html=1;shape=mxgraph.flowchart.on-page_reference;fontFamily=Kanit;fontSource=https%3A%2F%2Ffonts.googleapis.com%2Fcss%3Ffamily%3DKanit;fontSize=18;" vertex="1" parent="1">
          <mxGeometry x="630" y="1135" width="40" height="40" as="geometry" />
        </mxCell>
        <mxCell id="sDerq0rX48A-iTbsA8gS-67" style="edgeStyle=orthogonalEdgeStyle;rounded=0;orthogonalLoop=1;jettySize=auto;html=1;entryX=0.5;entryY=1;entryDx=0;entryDy=0;entryPerimeter=0;fontFamily=Kanit;fontSource=https%3A%2F%2Ffonts.googleapis.com%2Fcss%3Ffamily%3DKanit;fontSize=18;" edge="1" parent="1" source="sDerq0rX48A-iTbsA8gS-62" target="sDerq0rX48A-iTbsA8gS-60">
          <mxGeometry relative="1" as="geometry" />
        </mxCell>
        <mxCell id="sDerq0rX48A-iTbsA8gS-62" value="" style="verticalLabelPosition=bottom;verticalAlign=top;html=1;shape=mxgraph.flowchart.on-page_reference;fontFamily=Kanit;fontSource=https%3A%2F%2Ffonts.googleapis.com%2Fcss%3Ffamily%3DKanit;fontSize=18;" vertex="1" parent="1">
          <mxGeometry x="630" y="1305" width="40" height="40" as="geometry" />
        </mxCell>
        <mxCell id="sDerq0rX48A-iTbsA8gS-66" style="edgeStyle=orthogonalEdgeStyle;rounded=0;orthogonalLoop=1;jettySize=auto;html=1;entryX=0.5;entryY=1;entryDx=0;entryDy=0;entryPerimeter=0;fontFamily=Kanit;fontSource=https%3A%2F%2Ffonts.googleapis.com%2Fcss%3Ffamily%3DKanit;fontSize=18;" edge="1" parent="1" source="sDerq0rX48A-iTbsA8gS-63" target="sDerq0rX48A-iTbsA8gS-62">
          <mxGeometry relative="1" as="geometry" />
        </mxCell>
        <mxCell id="sDerq0rX48A-iTbsA8gS-63" value="" style="verticalLabelPosition=bottom;verticalAlign=top;html=1;shape=mxgraph.flowchart.on-page_reference;fontFamily=Kanit;fontSource=https%3A%2F%2Ffonts.googleapis.com%2Fcss%3Ffamily%3DKanit;fontSize=18;" vertex="1" parent="1">
          <mxGeometry x="630" y="1475" width="40" height="40" as="geometry" />
        </mxCell>
        <mxCell id="sDerq0rX48A-iTbsA8gS-65" style="edgeStyle=orthogonalEdgeStyle;rounded=0;orthogonalLoop=1;jettySize=auto;html=1;entryX=0.5;entryY=1;entryDx=0;entryDy=0;entryPerimeter=0;fontFamily=Kanit;fontSource=https%3A%2F%2Ffonts.googleapis.com%2Fcss%3Ffamily%3DKanit;fontSize=18;" edge="1" parent="1" source="sDerq0rX48A-iTbsA8gS-64" target="sDerq0rX48A-iTbsA8gS-63">
          <mxGeometry relative="1" as="geometry" />
        </mxCell>
        <mxCell id="sDerq0rX48A-iTbsA8gS-64" value="" style="verticalLabelPosition=bottom;verticalAlign=top;html=1;shape=mxgraph.flowchart.on-page_reference;fontFamily=Kanit;fontSource=https%3A%2F%2Ffonts.googleapis.com%2Fcss%3Ffamily%3DKanit;fontSize=18;" vertex="1" parent="1">
          <mxGeometry x="630" y="1645" width="40" height="40" as="geometry" />
        </mxCell>
        <mxCell id="sDerq0rX48A-iTbsA8gS-78" style="edgeStyle=orthogonalEdgeStyle;rounded=0;orthogonalLoop=1;jettySize=auto;html=1;entryX=1;entryY=0.5;entryDx=0;entryDy=0;entryPerimeter=0;fontFamily=Kanit;fontSource=https%3A%2F%2Ffonts.googleapis.com%2Fcss%3Ffamily%3DKanit;fontSize=18;" edge="1" parent="1" source="sDerq0rX48A-iTbsA8gS-72" target="sDerq0rX48A-iTbsA8gS-76">
          <mxGeometry relative="1" as="geometry">
            <Array as="points">
              <mxPoint x="880" y="2090" />
            </Array>
          </mxGeometry>
        </mxCell>
        <mxCell id="sDerq0rX48A-iTbsA8gS-72" value="avg = avg + height[i]" style="rounded=1;whiteSpace=wrap;html=1;absoluteArcSize=1;arcSize=14;strokeWidth=2;fontFamily=Kanit;fontSource=https%3A%2F%2Ffonts.googleapis.com%2Fcss%3Ffamily%3DKanit;fontSize=18;" vertex="1" parent="1">
          <mxGeometry x="780" y="1105" width="200" height="100" as="geometry" />
        </mxCell>
        <mxCell id="sDerq0rX48A-iTbsA8gS-81" value="" style="edgeStyle=orthogonalEdgeStyle;rounded=0;orthogonalLoop=1;jettySize=auto;html=1;fontFamily=Kanit;fontSource=https%3A%2F%2Ffonts.googleapis.com%2Fcss%3Ffamily%3DKanit;fontSize=18;" edge="1" parent="1" source="sDerq0rX48A-iTbsA8gS-74" target="sDerq0rX48A-iTbsA8gS-80">
          <mxGeometry relative="1" as="geometry" />
        </mxCell>
        <mxCell id="sDerq0rX48A-iTbsA8gS-74" value="height[i] = 0" style="rounded=1;whiteSpace=wrap;html=1;absoluteArcSize=1;arcSize=14;strokeWidth=2;fontFamily=Kanit;fontSource=https%3A%2F%2Ffonts.googleapis.com%2Fcss%3Ffamily%3DKanit;fontSize=18;" vertex="1" parent="1">
          <mxGeometry x="-20" y="1760" width="200" height="100" as="geometry" />
        </mxCell>
        <mxCell id="sDerq0rX48A-iTbsA8gS-83" style="edgeStyle=orthogonalEdgeStyle;rounded=0;orthogonalLoop=1;jettySize=auto;html=1;entryX=0;entryY=0.5;entryDx=0;entryDy=0;entryPerimeter=0;fontFamily=Kanit;fontSource=https%3A%2F%2Ffonts.googleapis.com%2Fcss%3Ffamily%3DKanit;fontSize=18;" edge="1" parent="1" source="sDerq0rX48A-iTbsA8gS-76" target="sDerq0rX48A-iTbsA8gS-27">
          <mxGeometry relative="1" as="geometry">
            <Array as="points">
              <mxPoint x="-190" y="2090" />
              <mxPoint x="-190" y="811" />
            </Array>
          </mxGeometry>
        </mxCell>
        <mxCell id="sDerq0rX48A-iTbsA8gS-98" value="" style="edgeStyle=orthogonalEdgeStyle;rounded=0;orthogonalLoop=1;jettySize=auto;html=1;fontFamily=Kanit;fontSource=https%3A%2F%2Ffonts.googleapis.com%2Fcss%3Ffamily%3DKanit;fontSize=18;" edge="1" parent="1" source="sDerq0rX48A-iTbsA8gS-76" target="sDerq0rX48A-iTbsA8gS-96">
          <mxGeometry relative="1" as="geometry" />
        </mxCell>
        <mxCell id="sDerq0rX48A-iTbsA8gS-76" value="" style="verticalLabelPosition=bottom;verticalAlign=top;html=1;shape=mxgraph.flowchart.on-page_reference;fontFamily=Kanit;fontSource=https%3A%2F%2Ffonts.googleapis.com%2Fcss%3Ffamily%3DKanit;fontSize=18;" vertex="1" parent="1">
          <mxGeometry x="60" y="2070" width="40" height="40" as="geometry" />
        </mxCell>
        <mxCell id="sDerq0rX48A-iTbsA8gS-82" value="" style="edgeStyle=orthogonalEdgeStyle;rounded=0;orthogonalLoop=1;jettySize=auto;html=1;fontFamily=Kanit;fontSource=https%3A%2F%2Ffonts.googleapis.com%2Fcss%3Ffamily%3DKanit;fontSize=18;" edge="1" parent="1" source="sDerq0rX48A-iTbsA8gS-80" target="sDerq0rX48A-iTbsA8gS-76">
          <mxGeometry relative="1" as="geometry" />
        </mxCell>
        <mxCell id="sDerq0rX48A-iTbsA8gS-80" value="i++" style="rounded=1;whiteSpace=wrap;html=1;absoluteArcSize=1;arcSize=14;strokeWidth=2;fontFamily=Kanit;fontSource=https%3A%2F%2Ffonts.googleapis.com%2Fcss%3Ffamily%3DKanit;fontSize=18;" vertex="1" parent="1">
          <mxGeometry x="30" y="1950" width="100" height="60" as="geometry" />
        </mxCell>
        <mxCell id="sDerq0rX48A-iTbsA8gS-84" value="True" style="text;html=1;strokeColor=none;fillColor=none;align=center;verticalAlign=middle;whiteSpace=wrap;rounded=0;fontFamily=Kanit;fontSource=https%3A%2F%2Ffonts.googleapis.com%2Fcss%3Ffamily%3DKanit;fontSize=18;" vertex="1" parent="1">
          <mxGeometry x="180" y="1120" width="60" height="30" as="geometry" />
        </mxCell>
        <mxCell id="sDerq0rX48A-iTbsA8gS-87" value="True" style="text;html=1;strokeColor=none;fillColor=none;align=center;verticalAlign=middle;whiteSpace=wrap;rounded=0;fontFamily=Kanit;fontSource=https%3A%2F%2Ffonts.googleapis.com%2Fcss%3Ffamily%3DKanit;fontSize=18;" vertex="1" parent="1">
          <mxGeometry x="180" y="1290" width="60" height="30" as="geometry" />
        </mxCell>
        <mxCell id="sDerq0rX48A-iTbsA8gS-88" value="True" style="text;html=1;strokeColor=none;fillColor=none;align=center;verticalAlign=middle;whiteSpace=wrap;rounded=0;fontFamily=Kanit;fontSource=https%3A%2F%2Ffonts.googleapis.com%2Fcss%3Ffamily%3DKanit;fontSize=18;" vertex="1" parent="1">
          <mxGeometry x="180" y="1460" width="60" height="30" as="geometry" />
        </mxCell>
        <mxCell id="sDerq0rX48A-iTbsA8gS-89" value="True" style="text;html=1;strokeColor=none;fillColor=none;align=center;verticalAlign=middle;whiteSpace=wrap;rounded=0;fontFamily=Kanit;fontSource=https%3A%2F%2Ffonts.googleapis.com%2Fcss%3Ffamily%3DKanit;fontSize=18;" vertex="1" parent="1">
          <mxGeometry x="180" y="1630" width="60" height="30" as="geometry" />
        </mxCell>
        <mxCell id="sDerq0rX48A-iTbsA8gS-90" value="False" style="text;html=1;strokeColor=none;fillColor=none;align=center;verticalAlign=middle;whiteSpace=wrap;rounded=0;fontFamily=Kanit;fontSource=https%3A%2F%2Ffonts.googleapis.com%2Fcss%3Ffamily%3DKanit;fontSize=18;" vertex="1" parent="1">
          <mxGeometry x="100" y="1220" width="60" height="30" as="geometry" />
        </mxCell>
        <mxCell id="sDerq0rX48A-iTbsA8gS-91" value="False" style="text;html=1;strokeColor=none;fillColor=none;align=center;verticalAlign=middle;whiteSpace=wrap;rounded=0;fontFamily=Kanit;fontSource=https%3A%2F%2Ffonts.googleapis.com%2Fcss%3Ffamily%3DKanit;fontSize=18;" vertex="1" parent="1">
          <mxGeometry x="100" y="1390" width="60" height="30" as="geometry" />
        </mxCell>
        <mxCell id="sDerq0rX48A-iTbsA8gS-92" value="False" style="text;html=1;strokeColor=none;fillColor=none;align=center;verticalAlign=middle;whiteSpace=wrap;rounded=0;fontFamily=Kanit;fontSource=https%3A%2F%2Ffonts.googleapis.com%2Fcss%3Ffamily%3DKanit;fontSize=18;" vertex="1" parent="1">
          <mxGeometry x="100" y="1560" width="60" height="30" as="geometry" />
        </mxCell>
        <mxCell id="sDerq0rX48A-iTbsA8gS-93" value="False" style="text;html=1;strokeColor=none;fillColor=none;align=center;verticalAlign=middle;whiteSpace=wrap;rounded=0;fontFamily=Kanit;fontSource=https%3A%2F%2Ffonts.googleapis.com%2Fcss%3Ffamily%3DKanit;fontSize=18;" vertex="1" parent="1">
          <mxGeometry x="100" y="1720" width="60" height="30" as="geometry" />
        </mxCell>
        <mxCell id="sDerq0rX48A-iTbsA8gS-101" value="" style="edgeStyle=orthogonalEdgeStyle;rounded=0;orthogonalLoop=1;jettySize=auto;html=1;fontFamily=Kanit;fontSource=https%3A%2F%2Ffonts.googleapis.com%2Fcss%3Ffamily%3DKanit;fontSize=18;" edge="1" parent="1" source="sDerq0rX48A-iTbsA8gS-96" target="sDerq0rX48A-iTbsA8gS-100">
          <mxGeometry relative="1" as="geometry" />
        </mxCell>
        <mxCell id="sDerq0rX48A-iTbsA8gS-96" value="avg = avg / n" style="rounded=1;whiteSpace=wrap;html=1;absoluteArcSize=1;arcSize=14;strokeWidth=2;fontFamily=Kanit;fontSource=https%3A%2F%2Ffonts.googleapis.com%2Fcss%3Ffamily%3DKanit;fontSize=18;" vertex="1" parent="1">
          <mxGeometry x="-20" y="2180" width="200" height="100" as="geometry" />
        </mxCell>
        <mxCell id="sDerq0rX48A-iTbsA8gS-103" value="" style="edgeStyle=orthogonalEdgeStyle;rounded=0;orthogonalLoop=1;jettySize=auto;html=1;fontFamily=Kanit;fontSource=https%3A%2F%2Ffonts.googleapis.com%2Fcss%3Ffamily%3DKanit;fontSize=18;" edge="1" parent="1" source="sDerq0rX48A-iTbsA8gS-100" target="sDerq0rX48A-iTbsA8gS-102">
          <mxGeometry relative="1" as="geometry" />
        </mxCell>
        <mxCell id="sDerq0rX48A-iTbsA8gS-100" value="Total student = n&lt;br&gt;in range 0-160 = range[0]&lt;br&gt;in range 161-170 = range[1]&lt;br&gt;in range 171-180 = range[2]&lt;br&gt;in range 181-200 = range[3]" style="strokeWidth=2;html=1;shape=mxgraph.flowchart.display;whiteSpace=wrap;fontFamily=Kanit;fontSource=https%3A%2F%2Ffonts.googleapis.com%2Fcss%3Ffamily%3DKanit;fontSize=18;" vertex="1" parent="1">
          <mxGeometry x="-117.5" y="2370" width="395" height="210" as="geometry" />
        </mxCell>
        <mxCell id="sDerq0rX48A-iTbsA8gS-106" value="" style="edgeStyle=orthogonalEdgeStyle;rounded=0;orthogonalLoop=1;jettySize=auto;html=1;fontFamily=Kanit;fontSource=https%3A%2F%2Ffonts.googleapis.com%2Fcss%3Ffamily%3DKanit;fontSize=18;" edge="1" parent="1" source="sDerq0rX48A-iTbsA8gS-102" target="sDerq0rX48A-iTbsA8gS-105">
          <mxGeometry relative="1" as="geometry" />
        </mxCell>
        <mxCell id="sDerq0rX48A-iTbsA8gS-102" value="avarage student&#39;s height = avg&lt;br&gt;" style="strokeWidth=2;html=1;shape=mxgraph.flowchart.display;whiteSpace=wrap;fontFamily=Kanit;fontSource=https%3A%2F%2Ffonts.googleapis.com%2Fcss%3Ffamily%3DKanit;fontSize=18;" vertex="1" parent="1">
          <mxGeometry x="-53.75" y="2650" width="267.5" height="150" as="geometry" />
        </mxCell>
        <mxCell id="sDerq0rX48A-iTbsA8gS-108" value="" style="edgeStyle=orthogonalEdgeStyle;rounded=0;orthogonalLoop=1;jettySize=auto;html=1;fontFamily=Kanit;fontSource=https%3A%2F%2Ffonts.googleapis.com%2Fcss%3Ffamily%3DKanit;fontSize=18;" edge="1" parent="1" source="sDerq0rX48A-iTbsA8gS-105" target="sDerq0rX48A-iTbsA8gS-107">
          <mxGeometry relative="1" as="geometry" />
        </mxCell>
        <mxCell id="sDerq0rX48A-iTbsA8gS-105" value="i = 0" style="rounded=1;whiteSpace=wrap;html=1;absoluteArcSize=1;arcSize=14;strokeWidth=2;fontFamily=Kanit;fontSource=https%3A%2F%2Ffonts.googleapis.com%2Fcss%3Ffamily%3DKanit;fontSize=18;" vertex="1" parent="1">
          <mxGeometry x="297.5" y="2695" width="125" height="60" as="geometry" />
        </mxCell>
        <mxCell id="sDerq0rX48A-iTbsA8gS-107" value="i &amp;lt; n" style="strokeWidth=2;html=1;shape=mxgraph.flowchart.decision;whiteSpace=wrap;fontFamily=Kanit;fontSource=https%3A%2F%2Ffonts.googleapis.com%2Fcss%3Ffamily%3DKanit;fontSize=18;" vertex="1" parent="1">
          <mxGeometry x="520" y="2662.5" width="200" height="125" as="geometry" />
        </mxCell>
      </root>
    </mxGraphModel>
  </diagram>
</mxfile>
